<?xml version="1.0" encoding="UTF-8" standalone="no"?>
<!DOCTYPE svg PUBLIC "-//W3C//DTD SVG 1.1//EN"
 "http://www.w3.org/Graphics/SVG/1.1/DTD/svg11.dtd">
<!-- Generated by graphviz version 2.43.0 (0)
 -->
<!-- Title: snakemake_dag Pages: 1 -->
<svg width="198pt" height="476pt"
 viewBox="0.00 0.00 197.50 476.00" xmlns="http://www.w3.org/2000/svg" xmlns:xlink="http://www.w3.org/1999/xlink">
<g id="graph0" class="graph" transform="scale(1 1) rotate(0) translate(4 472)">
<title>snakemake_dag</title>
<polygon fill="white" stroke="transparent" points="-4,4 -4,-472 193.5,-472 193.5,4 -4,4"/>
<!-- 1 -->
<g id="node1" class="node">
<title>1</title>
<path fill="none" stroke="#59d856" stroke-width="2" d="M109,-36C109,-36 46,-36 46,-36 40,-36 34,-30 34,-24 34,-24 34,-12 34,-12 34,-6 40,0 46,0 46,0 109,0 109,0 115,0 121,-6 121,-12 121,-12 121,-24 121,-24 121,-30 115,-36 109,-36"/>
<text text-anchor="middle" x="77.5" y="-15.5" font-family="sans" font-size="10.00">collate_counts</text>
</g>
<!-- 2 -->
<g id="node2" class="node">
<title>2</title>
<path fill="none" stroke="#d6d856" stroke-width="2" d="M87.5,-252C87.5,-252 31.5,-252 31.5,-252 25.5,-252 19.5,-246 19.5,-240 19.5,-240 19.5,-228 19.5,-228 19.5,-222 25.5,-216 31.5,-216 31.5,-216 87.5,-216 87.5,-216 93.5,-216 99.5,-222 99.5,-228 99.5,-228 99.5,-240 99.5,-240 99.5,-246 93.5,-252 87.5,-252"/>
<text text-anchor="middle" x="59.5" y="-231.5" font-family="sans" font-size="10.00">count_kmers</text>
</g>
<!-- 2&#45;&gt;1 -->
<g id="edge2" class="edge">
<title>2&#45;&gt;1</title>
<path fill="none" stroke="grey" stroke-width="2" d="M55.33,-215.79C48.83,-186.02 38.22,-123.18 50.5,-72 52.71,-62.81 56.79,-53.41 61.12,-45.13"/>
<polygon fill="grey" stroke="grey" stroke-width="2" points="64.22,-46.77 66.03,-36.33 58.1,-43.36 64.22,-46.77"/>
</g>
<!-- 7 -->
<g id="node7" class="node">
<title>7</title>
<path fill="none" stroke="#569ad8" stroke-width="2" d="M121,-180C121,-180 90,-180 90,-180 84,-180 78,-174 78,-168 78,-168 78,-156 78,-156 78,-150 84,-144 90,-144 90,-144 121,-144 121,-144 127,-144 133,-150 133,-156 133,-156 133,-168 133,-168 133,-174 127,-180 121,-180"/>
<text text-anchor="middle" x="105.5" y="-159.5" font-family="sans" font-size="10.00">usearch</text>
</g>
<!-- 2&#45;&gt;7 -->
<g id="edge8" class="edge">
<title>2&#45;&gt;7</title>
<path fill="none" stroke="grey" stroke-width="2" d="M70.87,-215.7C76.22,-207.56 82.7,-197.69 88.61,-188.7"/>
<polygon fill="grey" stroke="grey" stroke-width="2" points="91.69,-190.38 94.26,-180.1 85.84,-186.54 91.69,-190.38"/>
</g>
<!-- 3 -->
<g id="node3" class="node">
<title>3</title>
<path fill="none" stroke="#d89556" stroke-width="2" d="M107,-396C107,-396 12,-396 12,-396 6,-396 0,-390 0,-384 0,-384 0,-372 0,-372 0,-366 6,-360 12,-360 12,-360 107,-360 107,-360 113,-360 119,-366 119,-372 119,-372 119,-384 119,-384 119,-390 113,-396 107,-396"/>
<text text-anchor="middle" x="59.5" y="-375.5" font-family="sans" font-size="10.00">combine_alignments</text>
</g>
<!-- 3&#45;&gt;2 -->
<g id="edge4" class="edge">
<title>3&#45;&gt;2</title>
<path fill="none" stroke="grey" stroke-width="2" d="M52.02,-359.7C48.03,-349.52 43.53,-336.27 41.5,-324 38.89,-308.21 38.89,-303.79 41.5,-288 42.94,-279.28 45.63,-270.06 48.5,-261.8"/>
<polygon fill="grey" stroke="grey" stroke-width="2" points="51.83,-262.89 52.02,-252.3 45.27,-260.46 51.83,-262.89"/>
</g>
<!-- 5 -->
<g id="node5" class="node">
<title>5</title>
<path fill="none" stroke="#d85656" stroke-width="2" d="M132.5,-324C132.5,-324 62.5,-324 62.5,-324 56.5,-324 50.5,-318 50.5,-312 50.5,-312 50.5,-300 50.5,-300 50.5,-294 56.5,-288 62.5,-288 62.5,-288 132.5,-288 132.5,-288 138.5,-288 144.5,-294 144.5,-300 144.5,-300 144.5,-312 144.5,-312 144.5,-318 138.5,-324 132.5,-324"/>
<text text-anchor="middle" x="97.5" y="-303.5" font-family="sans" font-size="10.00">combine_fastas</text>
</g>
<!-- 3&#45;&gt;5 -->
<g id="edge6" class="edge">
<title>3&#45;&gt;5</title>
<path fill="none" stroke="grey" stroke-width="2" d="M68.89,-359.7C73.26,-351.64 78.56,-341.89 83.4,-332.98"/>
<polygon fill="grey" stroke="grey" stroke-width="2" points="86.52,-334.56 88.21,-324.1 80.37,-331.22 86.52,-334.56"/>
</g>
<!-- 4 -->
<g id="node4" class="node">
<title>4</title>
<path fill="none" stroke="#56d89a" stroke-width="2" d="M86,-468C86,-468 33,-468 33,-468 27,-468 21,-462 21,-456 21,-456 21,-444 21,-444 21,-438 27,-432 33,-432 33,-432 86,-432 86,-432 92,-432 98,-438 98,-444 98,-444 98,-456 98,-456 98,-462 92,-468 86,-468"/>
<text text-anchor="middle" x="59.5" y="-447.5" font-family="sans" font-size="10.00">dotdashxton</text>
</g>
<!-- 4&#45;&gt;3 -->
<g id="edge5" class="edge">
<title>4&#45;&gt;3</title>
<path fill="none" stroke="grey" stroke-width="2" d="M59.5,-431.7C59.5,-423.98 59.5,-414.71 59.5,-406.11"/>
<polygon fill="grey" stroke="grey" stroke-width="2" points="63,-406.1 59.5,-396.1 56,-406.1 63,-406.1"/>
</g>
<!-- 5&#45;&gt;2 -->
<g id="edge3" class="edge">
<title>5&#45;&gt;2</title>
<path fill="none" stroke="grey" stroke-width="2" d="M88.11,-287.7C83.74,-279.64 78.44,-269.89 73.6,-260.98"/>
<polygon fill="grey" stroke="grey" stroke-width="2" points="76.63,-259.22 68.79,-252.1 70.48,-262.56 76.63,-259.22"/>
</g>
<!-- 6 -->
<g id="node6" class="node">
<title>6</title>
<path fill="none" stroke="#56d8d8" stroke-width="2" d="M177.5,-108C177.5,-108 71.5,-108 71.5,-108 65.5,-108 59.5,-102 59.5,-96 59.5,-96 59.5,-84 59.5,-84 59.5,-78 65.5,-72 71.5,-72 71.5,-72 177.5,-72 177.5,-72 183.5,-72 189.5,-78 189.5,-84 189.5,-84 189.5,-96 189.5,-96 189.5,-102 183.5,-108 177.5,-108"/>
<text text-anchor="middle" x="124.5" y="-87.5" font-family="sans" font-size="10.00">count_clustered_kmers</text>
</g>
<!-- 6&#45;&gt;1 -->
<g id="edge1" class="edge">
<title>6&#45;&gt;1</title>
<path fill="none" stroke="grey" stroke-width="2" d="M112.88,-71.7C107.36,-63.47 100.65,-53.48 94.57,-44.42"/>
<polygon fill="grey" stroke="grey" stroke-width="2" points="97.46,-42.46 88.98,-36.1 91.65,-46.36 97.46,-42.46"/>
</g>
<!-- 7&#45;&gt;6 -->
<g id="edge7" class="edge">
<title>7&#45;&gt;6</title>
<path fill="none" stroke="grey" stroke-width="2" d="M110.2,-143.7C112.31,-135.9 114.86,-126.51 117.22,-117.83"/>
<polygon fill="grey" stroke="grey" stroke-width="2" points="120.62,-118.67 119.86,-108.1 113.86,-116.84 120.62,-118.67"/>
</g>
</g>
</svg>
